<?xml version="1.0" encoding="UTF-8"?>
<!DOCTYPE svg PUBLIC "-//W3C//DTD SVG 1.1//EN" "http://www.w3.org/Graphics/SVG/1.1/DTD/svg11.dtd">
<!-- Creator: CorelDRAW X7 -->
<svg xmlns="http://www.w3.org/2000/svg" xml:space="preserve" width="42.9751mm" height="23.3767mm" version="1.1" style="shape-rendering:geometricPrecision; text-rendering:geometricPrecision; image-rendering:optimizeQuality; fill-rule:evenodd; clip-rule:evenodd"
viewBox="0 0 4616 2511"
 xmlns:xlink="http://www.w3.org/1999/xlink">
 <defs>
  <style type="text/css">
   <![CDATA[
    .fil3 {fill:#B22F33}
    .fil5 {fill:#008FD7}
    .fil0 {fill:#008FD7}
    .fil4 {fill:#D6343A}
    .fil2 {fill:#D6343A}
    .fil1 {fill:#FEFEFE}
   ]]>
  </style>
 </defs>
 <g id="Layer_x0020_1">
  <metadata id="CorelCorpID_0Corel-Layer"/>
  <path class="fil0" d="M2305 604c40,-1 80,10 120,33 40,22 77,50 109,83 33,34 60,70 80,111 21,40 31,79 31,116 1,62 -11,125 -36,190 -25,64 -59,127 -102,189 -44,62 -93,121 -149,177 -56,56 -115,107 -178,152 -63,44 -126,82 -190,113 -64,31 -124,53 -182,64 -19,57 -35,110 -50,160 -15,50 -25,94 -32,132 -4,20 -8,38 -13,56 -4,18 -15,27 -31,28 -10,0 -25,-7 -47,-22 -21,-14 -43,-32 -66,-53 -22,-21 -41,-44 -58,-68 -17,-25 -25,-47 -26,-66 1,-25 7,-56 17,-93 10,-38 23,-79 41,-125 -17,-10 -30,-23 -41,-36 -10,-14 -16,-28 -16,-44 0,-17 19,-27 58,-27 7,0 14,0 21,0 8,0 15,-1 22,-3 22,-51 45,-104 70,-159 25,-56 50,-110 76,-164 27,-54 53,-106 78,-156 26,-50 50,-95 73,-135 -35,39 -63,72 -84,99 -22,27 -35,40 -42,40 -9,1 -20,-4 -35,-14 -14,-9 -28,-22 -42,-37 -14,-16 -26,-34 -36,-55 -10,-20 -15,-41 -15,-62 -1,-27 19,-65 59,-112 41,-47 93,-94 158,-140 65,-46 138,-86 218,-120 80,-34 160,-51 240,-52zm120 259c0,-24 -8,-42 -25,-57 -17,-14 -38,-21 -64,-21 -47,1 -92,10 -135,28 -43,17 -84,39 -122,66 24,2 47,7 69,14 21,6 32,15 32,26 -11,21 -26,53 -45,96 -20,43 -42,92 -67,149 -25,57 -51,119 -79,187 -29,68 -56,137 -83,207 73,-43 141,-95 204,-156 63,-60 118,-123 165,-187 47,-65 84,-128 111,-190 27,-61 40,-115 39,-162z"/>
  <path class="fil1" d="M2647 1174c14,0 29,1 46,3 16,2 32,7 47,13 15,7 28,15 37,25 10,10 16,23 16,38 0,2 -1,5 -3,8 -21,34 -43,73 -64,118 -22,45 -44,94 -66,146 -22,52 -44,105 -68,160 -24,56 -49,109 -75,162 -25,52 -53,102 -82,149 -29,46 -60,88 -93,123 -33,36 -68,64 -107,85 -38,21 -79,32 -122,33 -25,0 -48,-3 -68,-9 -21,-6 -37,-13 -51,-22 -13,-9 -23,-18 -30,-27 -7,-9 -11,-17 -11,-24 0,-10 6,-15 18,-16 6,0 10,1 13,2 46,-1 90,-15 131,-43 42,-28 81,-65 119,-111 37,-45 72,-97 105,-154 33,-58 63,-117 90,-177 28,-61 53,-120 77,-177 23,-58 44,-109 62,-155 18,-45 34,-81 47,-109 14,-27 24,-41 32,-41zm75 -174c6,-17 13,-33 23,-47 10,-15 21,-28 33,-39 13,-11 27,-19 41,-26 15,-6 29,-9 43,-9 22,0 39,6 52,20 14,14 20,33 21,57 0,20 -4,40 -13,60 -9,19 -20,36 -34,51 -14,16 -30,28 -47,37 -17,10 -34,15 -51,15 -23,0 -41,-7 -54,-21 -13,-15 -20,-33 -20,-57 0,-11 2,-25 6,-41z"/>
  <path class="fil2" d="M3636 497c36,-1 71,10 108,33 36,22 68,50 98,84 29,35 53,73 71,115 18,41 28,81 28,118 1,45 -9,93 -28,142 -20,49 -46,98 -80,146 -33,48 -72,94 -118,140 -45,45 -92,87 -141,126 56,23 100,57 132,103 33,46 49,95 50,148 0,38 -9,78 -29,119 -20,41 -46,81 -78,120 -33,39 -71,76 -116,110 -44,35 -91,66 -140,92 -50,26 -100,47 -152,62 -53,15 -103,23 -151,23 -48,1 -89,-7 -121,-22 -33,-16 -59,-34 -79,-54 -20,-21 -35,-40 -43,-58 -9,-18 -13,-29 -13,-33 -10,0 -21,-3 -33,-10 -13,-7 -19,-13 -19,-20 0,-13 4,-32 12,-58 8,-27 18,-58 32,-96 13,-37 29,-79 47,-123 18,-45 38,-93 59,-143 -19,-16 -34,-32 -46,-47 -11,-15 -16,-24 -16,-29 1,-11 6,-18 16,-21 10,-2 22,-4 37,-4 17,0 35,-3 56,-7 25,-58 52,-117 78,-175 27,-59 54,-116 80,-169 27,-53 51,-102 75,-147 24,-46 45,-84 64,-116 -31,25 -60,50 -86,77 -26,25 -49,49 -68,70 -20,20 -36,37 -47,51 -12,13 -19,20 -22,20 -5,0 -13,-5 -22,-16 -9,-10 -18,-23 -26,-39 -8,-15 -16,-33 -21,-52 -6,-19 -9,-38 -9,-56 0,-11 9,-29 26,-54 18,-25 42,-52 74,-82 31,-29 68,-59 110,-91 43,-31 88,-60 137,-86 48,-26 99,-48 153,-65 53,-17 107,-26 161,-26zm-214 1029c-7,0 -14,0 -20,0 -6,0 -13,1 -20,2 -73,42 -145,71 -213,87 -21,46 -39,89 -56,130 -17,41 -32,76 -45,107 -14,30 -24,55 -31,73 -8,18 -11,27 -11,29 0,2 1,6 5,11 3,5 8,7 15,7 54,-1 110,-14 167,-40 58,-26 111,-58 158,-97 48,-38 88,-79 119,-123 31,-44 46,-83 46,-119 0,-17 -9,-32 -27,-46 -18,-15 -47,-22 -87,-21zm44 -637c0,4 -4,18 -13,41 -8,24 -20,54 -35,91 -14,36 -32,79 -52,126 -20,48 -41,98 -62,151 54,-38 107,-79 159,-124 52,-45 98,-90 137,-138 40,-47 72,-94 96,-141 24,-47 36,-92 36,-133 -1,-21 -8,-40 -22,-57 -14,-18 -33,-27 -58,-27 -49,1 -98,11 -145,30 -47,19 -93,42 -137,70 10,7 20,15 31,25 12,9 22,20 32,31 10,10 18,21 24,30 6,10 9,18 9,25z"/>
  <path class="fil1" d="M4558 1688c38,0 58,6 58,18 0,18 -3,38 -11,62 -7,24 -17,47 -29,70 -12,23 -25,44 -39,63 -14,19 -29,31 -44,38 -4,2 -22,8 -51,16 -29,9 -65,18 -108,28 -42,11 -90,22 -142,34 -52,11 -104,23 -157,33 -53,11 -103,19 -150,25 -47,6 -88,9 -121,10 -16,0 -29,-4 -39,-13 -10,-9 -18,-19 -24,-30 -6,-12 -10,-25 -12,-39 -2,-15 -3,-27 -3,-39 0,-13 0,-26 2,-37 1,-11 1,-20 1,-26 0,-5 1,-11 2,-17 1,-6 4,-13 10,-20 5,-7 14,-13 26,-20 12,-7 28,-14 49,-21 10,-22 26,-57 48,-105 23,-49 49,-104 80,-168 30,-64 63,-133 100,-207 36,-75 74,-149 111,-223 38,-73 75,-144 112,-212 36,-69 71,-129 103,-183 33,-53 61,-95 86,-126 24,-32 43,-47 57,-48 11,0 22,3 33,8 12,4 22,10 31,16 10,6 18,13 24,20 6,8 9,13 9,17 1,14 -10,47 -30,99 -21,53 -48,116 -81,189 -33,74 -71,154 -113,240 -42,87 -84,171 -126,253 -42,83 -82,159 -121,228 -38,70 -70,124 -96,163 57,-17 114,-31 171,-43 57,-12 110,-22 158,-29 49,-7 91,-13 126,-17 36,-4 61,-6 78,-7l22 0z"/>
  <path class="fil1" d="M577 1514l532 -157 -157 -532 -532 157 157 532zm142 -261l129 -38 -38 -129 -129 38 38 129zm98 -169l129 -38 -38 -129 -129 38 38 129z"/>
  <polygon class="fil3" points="455,2511 968,2360 817,1848 1341,1694 1275,1470 495,1699 256,887 0,962 305,1998 "/>
  <polygon class="fil4" points="817,1848 1341,1694 1275,1470 495,1699 256,887 0,962 305,1998 "/>
  <polygon class="fil5" points="1036,658 1275,1470 1531,1395 1227,359 703,513 552,0 40,151 191,663 256,887 "/>
 </g>
</svg>
